<?xml version="1.0" standalone="no"?>
<!DOCTYPE svg PUBLIC "-//W3C//DTD SVG 20010904//EN"
 "http://www.w3.org/TR/2001/REC-SVG-20010904/DTD/svg10.dtd">
<svg version="1.0" xmlns="http://www.w3.org/2000/svg"
 width="512.000000pt" height="512.000000pt" viewBox="0 0 512.000000 512.000000"
 preserveAspectRatio="xMidYMid meet">

<g transform="translate(0.000000,512.000000) scale(0.100000,-0.100000)"
fill="#000000" stroke="none">
<path d="M2516 5008 c-59 -13 -103 -45 -133 -96 -24 -41 -28 -60 -31 -148 l-4
-102 -82 -12 c-221 -32 -421 -93 -625 -191 -632 -303 -1071 -905 -1171 -1606
l-12 -83 -87 0 c-110 0 -152 -12 -203 -58 -50 -45 -68 -85 -68 -152 0 -67 18
-107 68 -152 51 -46 93 -58 203 -58 l87 0 12 -83 c32 -222 92 -421 191 -626
296 -617 876 -1050 1555 -1163 l132 -21 4 -102 c3 -93 6 -107 33 -151 80 -129
270 -129 350 0 27 44 30 58 33 152 l4 102 52 7 c210 26 464 102 662 199 615
301 1045 878 1155 1550 l23 136 85 0 c108 0 153 12 201 56 49 45 70 90 70 153
0 68 -18 108 -68 153 -51 46 -93 58 -203 58 l-86 0 -7 53 c-35 275 -150 607
-291 833 -25 40 -45 76 -45 80 0 5 79 88 175 184 141 141 175 180 175 202 0
18 -8 33 -22 42 -13 8 -109 29 -214 47 l-191 32 -33 191 c-18 105 -39 201 -46
214 -9 14 -24 22 -42 22 -22 0 -61 -34 -202 -175 -96 -96 -179 -175 -184 -175
-4 0 -40 20 -80 45 -105 65 -306 158 -432 199 -113 37 -294 79 -395 91 l-57 7
-4 103 c-3 93 -6 107 -33 151 -46 73 -135 111 -219 92z m103 -137 c11 -11 23
-35 26 -53 3 -18 5 -192 3 -386 l-3 -354 -28 -24 c-16 -13 -41 -24 -57 -24
-16 0 -41 11 -57 24 l-28 24 -3 354 c-2 194 0 368 3 386 9 48 37 72 85 72 26
0 47 -7 59 -19z m1491 -573 c12 -73 29 -140 36 -149 8 -9 46 -21 87 -28 39 -6
112 -19 160 -28 l89 -16 -247 -247 -246 -246 -157 27 c-86 16 -164 28 -173 28
-13 1 -22 36 -46 174 l-30 172 246 248 c227 228 246 245 253 222 3 -13 16 -84
28 -157z m-1758 -171 c5 -77 32 -132 86 -174 100 -76 247 -42 306 72 12 23 22
66 24 103 l4 63 47 -7 c84 -12 264 -62 356 -99 89 -36 279 -137 290 -155 7
-11 55 -277 55 -305 0 -13 -77 -91 -227 -230 -124 -115 -256 -238 -293 -272
l-68 -63 -63 43 c-110 73 -256 107 -380 88 -148 -23 -240 -71 -339 -177 -110
-119 -155 -243 -147 -409 3 -76 11 -117 31 -169 148 -385 636 -489 926 -196
108 108 160 235 160 390 0 103 -19 182 -65 269 -19 36 -35 69 -35 73 0 4 131
129 291 277 198 184 298 271 313 271 29 0 294 -47 305 -55 13 -7 104 -168 131
-230 54 -123 130 -388 130 -453 0 -5 -28 -11 -63 -14 -77 -5 -132 -32 -174
-86 -76 -100 -42 -247 72 -306 23 -12 66 -22 102 -24 35 -3 63 -8 63 -12 0
-33 -38 -195 -67 -285 -180 -562 -654 -987 -1233 -1105 -54 -11 -103 -20 -108
-20 -5 0 -11 28 -14 63 -5 77 -32 132 -86 174 -100 76 -247 42 -306 -72 -12
-23 -22 -66 -24 -102 -3 -35 -9 -63 -14 -63 -5 0 -53 9 -106 20 -644 131
-1151 638 -1282 1282 -11 53 -20 101 -20 107 0 7 23 11 58 11 139 0 250 117
227 239 -22 114 -107 181 -231 181 -33 0 -54 4 -54 11 0 6 9 54 20 107 130
641 634 1147 1273 1281 133 28 124 31 129 -42z m278 -1058 c65 -10 178 -57
198 -82 9 -10 -26 -48 -158 -171 -181 -167 -192 -184 -150 -226 11 -11 29 -20
40 -20 13 0 70 46 142 113 155 144 215 197 223 197 3 0 20 -30 38 -67 30 -64
32 -75 32 -178 -1 -127 -19 -185 -83 -270 -184 -242 -557 -229 -722 27 -80
123 -93 291 -32 421 61 132 190 234 323 256 75 12 76 12 149 0z m-1564 -452
c31 -36 31 -78 0 -114 l-24 -28 -387 0 -387 0 -24 28 c-39 46 -25 115 30 137
11 5 189 8 394 7 l374 -2 24 -28z m3810 0 c31 -36 31 -78 0 -114 l-24 -28
-387 0 -387 0 -24 28 c-39 46 -25 115 30 137 11 5 189 8 394 7 l374 -2 24 -28z
m-2259 -1551 l28 -24 3 -354 c2 -194 0 -368 -3 -386 -9 -48 -37 -72 -85 -72
-48 0 -76 24 -85 72 -3 18 -5 192 -3 386 l3 354 28 24 c16 13 41 24 57 24 16
0 41 -11 57 -24z"/>
</g>
</svg>
